<svg xmlns="http://www.w3.org/2000/svg" viewBox="0 0 401.43 240.01"><defs><style>.cc{fill:#fff;}</style></defs><title>Asset 5</title><g id="Layer_2" data-name="Layer 2"><g id="Layer_2-2" data-name="Layer 2"><path class="cc" d="M45.44.45C49.08.13,51.6,4,51,6.06c1.9,26.82-6.06,8.29-17.73,18.71C22.14,38.57,24.72,88.53,43,83.62,62.72,85.3,49.85,127.85,11.54,91-16.34,42.71,10.77-3.36,45.44.45Z"/><path class="cc" d="M55.05,41.12C50-14.34,106.34-1.37,113.33,9.93,123,22.32,119.65,75.54,118,85.05c-2.78,25.18-46.12,25.67-57.18,10.09C51.84,81.64,56.18,60.25,55.05,41.12ZM79.94,28.88C82,52.29,72.86,92,91.06,84.22c8-4.64,1.52-48.62,3.42-56.74C95,17.06,77.64,19.88,79.94,28.88Z"/><path class="cc" d="M161.3,1.18c32.29-1.35,33,43.09,21.27,55.25-5.4,5.93-10.26,2.74-8.23,13.34,1.61,9.6,5.46,8.66,12.55,8.12,19.4,33.31-22,38.89-28.88,3.88-17-39.84-2.63,20.53-13.55,22.26C110,115,128.62,68.07,124.18,28.34,122-8.86,129.28,3.2,161.3,1.18Zm-12.51,26c-2.9,13.79,4.79,34.25,14.45,12.59C167.1,19.24,148.77,15.34,148.79,27.13Z"/><path class="cc" d="M261.88,100.31c-.46,7.13-23.36,5-24.77,1.22-6.88-13.22-14.9-52.52-17.88-37.37.11,3.06.37,7.17.3,10.41,6.4,46.17-25.67,28.91-24.51,23.54-.73-6.85,0-34.06-.24-64,1.31-19.08-5.74-35,13.15-32.95,17.86-3.41,9.89,21.12,11.7,34.64.43,14.62,11-23,17.67-32.86,39.78-10.67,17.1,14.28,5.79,38C234.5,46.11,260.32,83.93,261.88,100.31Z"/><path class="cc" d="M361.59,68.38c7.19-6.35,4.2-14.85,7.47-15.35,29.65-7,11.66,20.15,4.75,30.43-2.37,3.71,21.15,17.52,8.64,21.15-31,1.94-21.44-2.58-30.2-7-12.4,9-40.6,11.73-50.56-1.49-20-30,8.67-46.08,10.85-51.5C298.69,23.73,305.13-1.09,338.09.51c31.31,1.09,32.44,35.84,10.07,50.32C348,55.41,362.12,68.8,361.59,68.38Zm-33-3.06c-2.32-2.85-3.54-3.43-5.86,0-14.23,24.81,36.57,29,11.8,7.54Zm7-27c6.36-.93,11.14-16.08,2.33-19.41C324.88,15.56,326.4,36.89,335.54,38.35Z"/><path class="cc" d="M45.44,134.48c3.64-.33,6.16,3.58,5.53,5.61,1.9,26.82-6.06,8.29-17.73,18.71-11.1,13.8-8.52,63.75,9.77,58.85,19.71,1.68,6.84,44.23-31.47,7.37C-16.34,176.74,10.77,130.67,45.44,134.48Z"/><path class="cc" d="M127.24,231.42c1,9.24-15.52,7.8-22.75,6.73-4.24-2.38-3.85-11.06-5.09-17-.32-7.36-19.8-6.82-18.5,2.76-2.45,28.21-32.77,12.11-26,3,.89-7.15,3.86-18.63,10.47-56.25,6-41.92,6.79-35.12,31.55-35.47,18.69-3.8,15,21.33,20.95,45.43C124.1,214,127.17,224.28,127.24,231.42ZM84.88,192.64c1.24,3.2,15.29,6.86,10.6-7.66C91.6,137.35,86.86,162.35,84.88,192.64Z"/><path class="cc" d="M176.59,181.85c2.9-7.11-2.6-41.57,3.72-45.23,8.66-3.81,23.58-2.23,21.74,8.5-1.46,89.87,8.33,99.83-21.42,91.6-4.82-4.3-2.63-4.29-6.89-12.19-9.46-18.08-19.12-49-17.65-29.16-.43,19.35,1.34,31.45-1,39.69-4.34,7.05-25.19,5.07-23.58-4.56,1.35-12.37-4.33-96.3,4.39-94.64C162.78,125.25,165.51,170.25,176.59,181.85Z"/><path class="cc" d="M260.14,135.06c28.91-5.34,10,27.35-2.43,98.25-3.8,10-35.36,7.05-35.31-1.85-10.27-51.85-15.22-83.57-16.07-87.53-4.41-12.14,24.6-12.48,25.41-2.66,6.58,33.26,6.87,73.78,9.65,71.77C249.1,202.29,245.45,127.78,260.14,135.06Z"/><path class="cc" d="M343,231.42c1,9.24-15.52,7.8-22.75,6.73-4.24-2.38-3.85-11.06-5.09-17-.32-7.36-19.8-6.82-18.5,2.76-2.45,28.21-32.77,12.11-26,3,.89-7.15,3.86-18.63,10.48-56.25,6-41.92,6.78-35.12,31.54-35.47,18.69-3.8,15,21.33,21,45.43C339.83,214,342.89,224.28,343,231.42Zm-42.35-38.78c1.23,3.2,15.29,6.86,10.59-7.66C307.32,137.35,302.58,162.35,300.61,192.64Z"/><path class="cc" d="M377.46,134.48c22.81-2,24.58,12.32,17.18,21.57-7,2.48-17.77-5.85-21.47,2.47-1.1,4.84.64,7.82,4.59,11.7C427,207.81,391,256.73,347,234.38c-5.66-27.31,4.27-13.24,23.38-16.09,21.07-8.7-17.59-30.68-20.62-41.86C339.89,147.46,359.82,132.76,377.46,134.48Z"/></g></g></svg>